<?xml version="1.0" encoding="utf-8"?><!DOCTYPE svg PUBLIC "-//W3C//DTD SVG 1.1//EN" "http://www.w3.org/Graphics/SVG/1.1/DTD/svg11.dtd"><svg version="1.1" xmlns="http://www.w3.org/2000/svg" xmlns:xlink="http://www.w3.org/1999/xlink" x="0" y="0" width="210" height="136" viewBox="0 0 210 136"><title>Tiefpass</title><path fill="none" stroke="#000000" stroke-width="2" d="M29.33,125.25H10.68"/><path fill="none" stroke="#000000" stroke-width="2" d="M50,19.987H10.68"/><path fill="#FFFFFF" stroke="#000000" stroke-width="2" d="M6.665,24.004c2.217,2.218,5.813,2.22,8.031,0.002c2.218-2.216,2.22-5.812,0.002-8.03c0-0.001-0.001-0.002-0.002-0.003c-2.217-2.219-5.813-2.22-8.031-0.003c-2.219,2.217-2.22,5.813-0.003,8.031C6.663,24.002,6.664,24.003,6.665,24.004z"/><path fill="#FFFFFF" stroke="#000000" stroke-width="2" d="M6.665,129.268c2.217,2.219,5.813,2.219,8.031,0.002c2.218-2.217,2.22-5.813,0.002-8.028c0-0.002-0.001-0.002-0.002-0.005c-2.217-2.219-5.813-2.219-8.031-0.004c-2.219,2.219-2.22,5.813-0.003,8.031C6.663,129.266,6.664,129.266,6.665,129.268z"/><path fill="none" stroke="#000000" stroke-width="2" d="M87.3,19.989h112.019"/><path fill="#FFFFFF" stroke="#000000" stroke-width="2" d="M203.336,15.972c-2.218-2.219-5.813-2.219-8.031-0.002c-2.219,2.217-2.221,5.813-0.002,8.031c0,0,0,0.002,0.002,0.002c2.217,2.219,5.813,2.22,8.031,0.004c2.219-2.218,2.219-5.813,0.003-8.031C203.338,15.974,203.337,15.974,203.336,15.972z"/><path fill="none" stroke="#000000" stroke-width="2" d="M16.356,125.253h182.96"/><path fill="#FFFFFF" stroke="#000000" stroke-width="2" d="M203.336,121.234c-2.218-2.219-5.813-2.219-8.031-0.002c-2.218,2.217-2.221,5.813-0.002,8.031c0,0.002,0,0.002,0.002,0.004c2.217,2.217,5.813,2.217,8.031,0.002c2.219-2.219,2.219-5.813,0.003-8.03C203.338,121.236,203.337,121.236,203.336,121.234z"/><path fill="none" stroke="#000000" stroke-width="3.5433" stroke-linecap="square" d="M118.767,72.98l29.838,0.039"/><path fill="none" stroke="#000000" stroke-width="3.5433" stroke-linecap="square" d="M148.604,63.019l-29.838-0.038"/><path fill="none" stroke="#000000" stroke-width="2" stroke-linecap="square" d="M133.686,125.25V73.02"/><path fill="none" stroke="#000000" stroke-width="2" stroke-linecap="square" d="M133.686,62.981V19.989"/><rect x="50" y="12.529" fill="none" stroke="#000000" stroke-width="2" stroke-linecap="square" stroke-linejoin="round" width="37.3" height="14.916"/><path stroke="#000000" stroke-width="2.6469" stroke-linecap="square" d="M136.182,125.25c0,1.38-1.119,2.498-2.498,2.498s-2.496-1.118-2.496-2.498c0-1.377,1.117-2.496,2.496-2.496S136.182,123.873,136.182,125.25z"/><path stroke="#000000" stroke-width="2.6469" stroke-linecap="square" d="M136.182,19.987c0,1.379-1.119,2.496-2.498,2.496s-2.496-1.117-2.496-2.496c0-1.379,1.117-2.496,2.496-2.496S136.182,18.608,136.182,19.987z"/><path d="M12.802,71.659c0,1.762-1.402,3.146-3.127,3.146c-1.725,0-3.127-1.384-3.127-3.146V61.196h1.933v10.272c0,0.948,0.512,1.403,1.194,1.403c0.683,0,1.194-0.455,1.194-1.403V61.196h1.934L12.802,71.659L12.802,71.659z M16.268,70.616v1.308c0,0.605,0.36,0.948,0.948,0.948c0.739,0,0.91-0.55,0.948-0.968h1.933c0,0.796-0.284,1.535-0.777,2.048c-0.512,0.53-1.213,0.853-2.104,0.853c-1.175,0-2.065-0.55-2.521-1.384c-0.265-0.491-0.36-1.175-0.36-1.952v-3.165c0-0.777,0.095-1.459,0.36-1.952c0.456-0.834,1.346-1.384,2.521-1.384c1.782,0,2.881,1.309,2.881,2.994v2.654H16.268L16.268,70.616z M16.268,69.102h1.896v-1.101c0-0.721-0.36-1.1-0.948-1.1c-0.588,0-0.948,0.379-0.948,1.1V69.102z"/><path d="M116.813,86.734c0,1.668-1.346,3.127-3.07,3.127c-1.479,0-3.184-0.721-3.184-3.184v-7.431c0-1.764,1.27-3.108,3.146-3.108c1.781,0,3.108,1.346,3.108,3.223v0.758h-1.933v-0.645c0-0.758-0.455-1.402-1.194-1.402c-0.966,0-1.194,0.664-1.194,1.574v6.897c0,0.777,0.304,1.384,1.176,1.384c0.53,0,1.213-0.304,1.213-1.365V85.9h1.933V86.734z"/><path d="M65.183,30h3.108c2.293,0,3.412,1.346,3.412,3.961c0,1.555-0.438,2.691-1.668,3.374l2.084,6.159h-2.047l-1.803-5.763h-1.154v5.763h-1.935L65.183,30L65.183,30z M67.117,36.027h1.1c1.346,0,1.555-0.758,1.555-2.104c0-1.365-0.229-2.104-1.646-2.104h-1.006v4.208H67.117z"/><path d="M194.938,71.659c0,1.762-1.4,3.146-3.127,3.146c-1.726,0-3.127-1.384-3.127-3.146V61.196h1.935v10.272c0,0.948,0.512,1.403,1.192,1.403c0.684,0,1.194-0.455,1.194-1.403V61.196h1.933V71.659z M200.299,73.705h-0.037c-0.513,0.702-0.93,1.1-1.857,1.1c-0.893,0-2.086-0.437-2.086-2.559c0-2.198,0.625-3.26,3.054-3.26c0.267,0,0.53,0.037,0.929,0.057v-1.005c0-0.645-0.244-1.137-0.967-1.137c-0.493,0-0.984,0.341-1.102,0.967h-1.875c0.058-0.854,0.359-1.574,0.871-2.085c0.514-0.512,1.231-0.815,2.104-0.815c1.61,0,2.899,1.023,2.899,3.033v6.688h-1.935L200.299,73.705L200.299,73.705z M200.299,70.561c-0.209-0.039-0.359-0.058-0.529-0.058c-0.836,0-1.518,0.34-1.518,1.364c0,0.738,0.379,1.23,1.005,1.23c0.646,0,1.042-0.453,1.042-1.23V70.561L200.299,70.561z"/></svg>